<svg width="70" height="43" viewBox="0 0 70 43" fill="none" xmlns="http://www.w3.org/2000/svg">
<path d="M12.2373 6.32449L22.7175 34.7728L20.2557 41.7384H19.4325L5.56459 5.85748C3.92608 1.64643 1.9947 1.29024 0 1.29024V0.53035H15.7439V1.29024C10.5909 1.29024 12.0553 5.91288 12.2294 6.32449H12.2373ZM32.2556 6.32449L42.2054 34.8915L39.6883 41.7384H38.8651L25.6383 5.85748C24.0552 1.64643 22.0051 1.29024 20.0737 1.29024V0.53035H35.8176V1.29024C30.6092 1.29024 32.1923 5.91288 32.2477 6.32449H32.2556Z" fill="white"/>
<path d="M62.2789 21.0156L52.6221 14.6357C43.7884 8.89701 48.5851 0.759886 54.9017 0.759886C64.6773 0.759886 66.957 6.8469 67.4873 12.5856H68.3106V2.75459C68.3106 2.75459 63.395 0 54.9017 0C46.4084 0 43.8992 4.56724 43.8992 4.56724C39.3953 11.4695 44.7224 16.7967 50.2791 20.4853L59.9993 26.7464C66.205 31.1475 65.8013 39.6724 59.0415 41.2239V42.1342C66.2604 41.4218 68.366 37.4561 68.366 37.4561C71.4134 32.6593 70.1232 26.1607 62.2789 21.0077V21.0156Z" fill="white"/>
</svg>
